<svg width="18" height="18" viewBox="0 0 18 18" fill="none" xmlns="http://www.w3.org/2000/svg">
<path d="M8.99999 16.7083C13.2572 16.7083 16.7083 13.2572 16.7083 8.99996C16.7083 4.74276 13.2572 1.29163 8.99999 1.29163M8.99999 16.7083C4.74279 16.7083 1.29166 13.2572 1.29166 8.99996C1.29166 4.74276 4.74279 1.29163 8.99999 1.29163M8.99999 16.7083C7.04398 16.7083 5.45832 13.2572 5.45832 8.99996C5.45832 4.74276 7.04398 1.29163 8.99999 1.29163M8.99999 16.7083C10.956 16.7083 12.5417 13.2572 12.5417 8.99996C12.5417 4.74276 10.956 1.29163 8.99999 1.29163M16.5 8.99996H1.49999" stroke="#1C1D1F" stroke-width="1.5" stroke-linecap="square"/>
</svg>
