<svg width="16" height="18" viewBox="0 0 16 18" fill="none" xmlns="http://www.w3.org/2000/svg">
<path d="M1.125 7.29175L0.650072 6.71128L0.375 6.93634V7.29175H1.125ZM14.875 7.29175H15.625V6.93634L15.3499 6.71128L14.875 7.29175ZM14.875 16.8751V17.6251H15.625V16.8751H14.875ZM1.125 16.8751H0.375V17.6251H1.125V16.8751ZM8 1.66675L8.47493 1.08628L8 0.697702L7.52507 1.08628L8 1.66675ZM4.45833 12.7917C4.04412 12.7917 3.70833 13.1275 3.70833 13.5417C3.70833 13.956 4.04412 14.2917 4.45833 14.2917V12.7917ZM11.5417 14.2917C11.9559 14.2917 12.2917 13.956 12.2917 13.5417C12.2917 13.1275 11.9559 12.7917 11.5417 12.7917V14.2917ZM14.125 7.29175V16.8751H15.625V7.29175H14.125ZM14.875 16.1251H1.125V17.6251H14.875V16.1251ZM1.875 16.8751V7.29175H0.375V16.8751H1.875ZM1.59993 7.87222L8.47493 2.24722L7.52507 1.08628L0.650072 6.71128L1.59993 7.87222ZM7.52507 2.24722L14.4001 7.87222L15.3499 6.71128L8.47493 1.08628L7.52507 2.24722ZM4.45833 14.2917H11.5417V12.7917H4.45833V14.2917Z" fill="#667085"/>
</svg>
