<svg width="19" height="15" viewBox="0 0 19 15" fill="none" xmlns="http://www.w3.org/2000/svg">
<path d="M0.666687 0.960693C0.666687 0.615515 0.946509 0.335693 1.29169 0.335693H16.7018C17.0463 0.335693 17.3258 0.614409 17.3268 0.958876C17.3303 2.1543 17.3302 3.34975 17.3301 4.54411L17.3301 6.9999L15.0417 6.99992C14.0062 6.99992 13.1667 7.83939 13.1667 8.87492V9.49992H12.5417C11.5062 9.49992 10.6667 10.3394 10.6667 11.3749L10.6668 13.6634H1.29169C0.946509 13.6634 0.666687 13.3835 0.666687 13.0384V5.74992H17.3301V4.49992H0.666687V0.960693Z" fill="#1730BF"/>
<path d="M15.6667 8.87492C15.6667 8.52974 15.3869 8.24992 15.0417 8.24992C14.6965 8.24992 14.4167 8.52974 14.4167 8.87492V10.7499H12.5417C12.1965 10.7499 11.9167 11.0297 11.9167 11.3749C11.9167 11.7201 12.1965 11.9999 12.5417 11.9999H14.4167V13.8749C14.4167 14.2201 14.6965 14.4999 15.0417 14.4999C15.3869 14.4999 15.6667 14.2201 15.6667 13.8749V11.9999H17.5417C17.8869 11.9999 18.1667 11.7201 18.1667 11.3749C18.1667 11.0297 17.8869 10.7499 17.5417 10.7499H15.6667V8.87492Z" fill="#1730BF"/>
</svg>
