<svg width="161" height="144" viewBox="0 0 161 144" fill="none" xmlns="http://www.w3.org/2000/svg">
<path d="M80 128C115.346 128 144 99.3462 144 64C144 28.6538 115.346 0 80 0C44.6538 0 16 28.6538 16 64C16 99.3462 44.6538 128 80 128Z" fill="#1730BF" fill-opacity="0.1"/>
<rect x="39.0984" y="28.4905" width="85.6225" height="91.3306" fill="white" fill-opacity="0.8"/>
<rect x="39.3947" y="28.7869" width="85.0298" height="90.7379" stroke="#CDD8E3" stroke-opacity="0.5" stroke-width="0.592702"/>
<g filter="url(#filter0_d_4_7481)">
<rect x="33.3903" y="35.0696" width="97.0388" height="102.747" fill="white"/>
</g>
<path d="M97.444 109.582C103.265 105.832 110.416 107.03 102.076 117.915C94.55 127.737 95.2797 113.957 105.367 112.752C106.81 112.579 108.29 113.463 107.584 114.734V114.734C106.756 116.224 115.696 110.668 115.09 109.582C114.484 108.496 109.458 114.607 110.039 115.188C110.62 115.769 115.292 115.011 117.085 113.622C118.52 112.511 116.611 115.74 119.895 116.142" stroke="#B1BBC9" stroke-width="0.592702" stroke-linecap="round"/>
<rect x="55.0839" y="63.8252" width="8.76237" height="29.8066" rx="0.592702" fill="url(#paint0_linear_4_7481)"/>
<rect x="44.0074" y="77.3259" width="8.76237" height="16.306" rx="0.592702" fill="url(#paint1_linear_4_7481)"/>
<rect x="66.395" y="81.1307" width="8.76237" height="12.5012" rx="0.592702" fill="url(#paint2_linear_4_7481)"/>
<rect x="111.133" y="81.1307" width="8.76237" height="12.5012" rx="0.592702" fill="url(#paint3_linear_4_7481)"/>
<rect x="99.9247" y="77.3259" width="8.76237" height="16.306" rx="0.592702" fill="url(#paint4_linear_4_7481)"/>
<rect x="88.8483" y="63.8252" width="8.76237" height="29.8066" rx="0.592702" fill="url(#paint5_linear_4_7481)"/>
<rect x="77.7064" y="60.7485" width="8.76237" height="32.8834" rx="0.592702" fill="url(#paint6_linear_4_7481)"/>
<rect x="67.6393" y="42.7284" width="28.5408" height="2.28327" rx="1.14163" fill="#E9ECF0"/>
<rect x="54.5104" y="50.2854" width="54.7984" height="2.28327" rx="1.14163" fill="#E9ECF0"/>
<rect x="44.0074" y="115.768" width="21.15" height="2.28327" rx="1.14163" fill="#E9ECF0"/>
<rect x="44.0074" y="111.031" width="40.608" height="2.28327" rx="1.14163" fill="#E9ECF0"/>
<rect x="46.9763" y="96.8514" width="2.75912" height="2.75912" rx="1.37956" fill="#E9ECF0"/>
<rect x="58.1185" y="96.8514" width="2.75912" height="2.75912" rx="1.37956" fill="#E9ECF0"/>
<rect x="69.2609" y="96.8514" width="2.75912" height="2.75912" rx="1.37956" fill="#E9ECF0"/>
<rect x="80.4033" y="96.8514" width="2.75912" height="2.75912" rx="1.37956" fill="#E9ECF0"/>
<rect x="91.5459" y="96.8514" width="2.75912" height="2.75912" rx="1.37956" fill="#E9ECF0"/>
<rect x="102.688" y="96.8514" width="2.75912" height="2.75912" rx="1.37956" fill="#E9ECF0"/>
<rect x="113.83" y="96.8514" width="2.75912" height="2.75912" rx="1.37956" fill="#E9ECF0"/>
<rect x="0.373291" y="98.8195" width="160.253" height="42.6805" fill="url(#paint7_linear_4_7481)"/>
<defs>
<filter id="filter0_d_4_7481" x="27.4632" y="29.1426" width="108.893" height="114.601" filterUnits="userSpaceOnUse" color-interpolation-filters="sRGB">
<feFlood flood-opacity="0" result="BackgroundImageFix"/>
<feColorMatrix in="SourceAlpha" type="matrix" values="0 0 0 0 0 0 0 0 0 0 0 0 0 0 0 0 0 0 127 0" result="hardAlpha"/>
<feMorphology radius="1.1854" operator="dilate" in="SourceAlpha" result="effect1_dropShadow_4_7481"/>
<feOffset/>
<feGaussianBlur stdDeviation="2.37081"/>
<feComposite in2="hardAlpha" operator="out"/>
<feColorMatrix type="matrix" values="0 0 0 0 0.141176 0 0 0 0 0.141176 0 0 0 0 0.160784 0 0 0 0.1 0"/>
<feBlend mode="normal" in2="BackgroundImageFix" result="effect1_dropShadow_4_7481"/>
<feBlend mode="normal" in="SourceGraphic" in2="effect1_dropShadow_4_7481" result="shape"/>
</filter>
<linearGradient id="paint0_linear_4_7481" x1="59.465" y1="63.8252" x2="59.465" y2="93.6318" gradientUnits="userSpaceOnUse">
<stop stop-color="#1730BF"/>
<stop offset="1" stop-color="#1142EF" stop-opacity="0"/>
</linearGradient>
<linearGradient id="paint1_linear_4_7481" x1="48.3886" y1="77.3259" x2="48.3886" y2="93.632" gradientUnits="userSpaceOnUse">
<stop stop-color="#E9ECF0"/>
<stop offset="1" stop-color="#E9ECF0" stop-opacity="0"/>
</linearGradient>
<linearGradient id="paint2_linear_4_7481" x1="70.7762" y1="81.1307" x2="70.7762" y2="93.6319" gradientUnits="userSpaceOnUse">
<stop stop-color="#E9ECF0"/>
<stop offset="1" stop-color="#E9ECF0" stop-opacity="0"/>
</linearGradient>
<linearGradient id="paint3_linear_4_7481" x1="115.514" y1="81.1307" x2="115.514" y2="93.6319" gradientUnits="userSpaceOnUse">
<stop stop-color="#E9ECF0"/>
<stop offset="1" stop-color="#E9ECF0" stop-opacity="0"/>
</linearGradient>
<linearGradient id="paint4_linear_4_7481" x1="104.306" y1="77.3259" x2="104.306" y2="93.632" gradientUnits="userSpaceOnUse">
<stop stop-color="#E9ECF0"/>
<stop offset="1" stop-color="#E9ECF0" stop-opacity="0"/>
</linearGradient>
<linearGradient id="paint5_linear_4_7481" x1="93.2295" y1="63.8252" x2="93.2295" y2="93.6318" gradientUnits="userSpaceOnUse">
<stop stop-color="#1730BF"/>
<stop offset="1" stop-color="#1142EF" stop-opacity="0"/>
</linearGradient>
<linearGradient id="paint6_linear_4_7481" x1="82.0876" y1="60.7485" x2="82.0876" y2="93.6319" gradientUnits="userSpaceOnUse">
<stop stop-color="#1730BF"/>
<stop offset="1" stop-color="#1142EF" stop-opacity="0"/>
</linearGradient>
<linearGradient id="paint7_linear_4_7481" x1="80.4999" y1="98.8195" x2="80.4999" y2="134.745" gradientUnits="userSpaceOnUse">
<stop stop-color="white" stop-opacity="0"/>
<stop offset="1" stop-color="white"/>
</linearGradient>
</defs>
</svg>
