<svg width="18" height="18" viewBox="0 0 18 18" fill="none" xmlns="http://www.w3.org/2000/svg">
<path fill-rule="evenodd" clip-rule="evenodd" d="M9.00002 0.666687C4.39765 0.666687 0.666687 4.39765 0.666687 9.00002C0.666687 13.6024 4.39765 17.3334 9.00002 17.3334C13.6024 17.3334 17.3334 13.6024 17.3334 9.00002C17.3334 4.39765 13.6024 0.666687 9.00002 0.666687ZM11.9837 7.31246C12.2023 7.04531 12.1629 6.65154 11.8958 6.43296C11.6286 6.21438 11.2349 6.25376 11.0163 6.52091L7.70362 10.5697L6.5253 9.39141C6.28122 9.14734 5.88549 9.14734 5.64141 9.39141C5.39733 9.63549 5.39733 10.0312 5.64141 10.2753L7.30808 11.942C7.43294 12.0668 7.60479 12.133 7.78115 12.1242C7.95752 12.1154 8.12193 12.0325 8.23374 11.8958L11.9837 7.31246Z" fill="#27B96F"/>
</svg>
