<svg width="17" height="18" viewBox="0 0 17 18" fill="none" xmlns="http://www.w3.org/2000/svg">
<path fill-rule="evenodd" clip-rule="evenodd" d="M8.50001 0.666748C3.89763 0.666748 0.166672 4.39771 0.166672 9.00008C0.166672 11.4143 1.19327 13.5887 2.83373 15.1106C4.32062 16.49 6.31182 17.3334 8.50001 17.3334C10.6882 17.3334 12.6794 16.49 14.1663 15.1106C15.8067 13.5887 16.8333 11.4143 16.8333 9.00008C16.8333 4.39771 13.1024 0.666748 8.50001 0.666748ZM3.48005 13.9974C4.58266 12.4784 6.34262 11.5001 8.50001 11.5001C10.6574 11.5001 12.4173 12.4784 13.52 13.9974C12.2373 15.2859 10.4618 16.0834 8.50001 16.0834C6.53825 16.0834 4.76276 15.2859 3.48005 13.9974ZM11 7.33342C11 8.71413 9.88072 9.83342 8.50001 9.83342C7.11929 9.83342 6.00001 8.71413 6.00001 7.33342C6.00001 5.9527 7.11929 4.83342 8.50001 4.83342C9.88072 4.83342 11 5.9527 11 7.33342Z" fill="#1730BF"/>
</svg>
