<svg width="375" height="283" viewBox="0 0 375 283" fill="none" xmlns="http://www.w3.org/2000/svg">
<g clip-path="url(#clip0_1_954)">
<rect x="306" y="210" width="6.625" height="4.83" transform="rotate(-37 306 210)" fill="#27B96F"/>
<rect x="49" y="167" width="10.625" height="3.83" transform="rotate(153 49 167)" fill="#666D80" fill-opacity="0.85"/>
<rect x="28" y="94" width="10.625" height="4.83" transform="rotate(130 28 94)" fill="#27B96F" fill-opacity="0.75"/>
<rect x="264" width="3.625" height="2.83" transform="rotate(47 264 0)" fill="#27B96F"/>
<rect x="107" y="263" width="14.625" height="5.83" transform="rotate(-141 107 263)" fill="#1730BF"/>
<circle cx="56.4375" cy="121.438" r="1.4375" fill="#1730BF" fill-opacity="0.9"/>
<circle cx="65.9375" cy="236.938" r="2.9375" fill="#666D80" fill-opacity="0.85"/>
<circle cx="339.438" cy="137.438" r="2.4375" fill="#4F95FF"/>
<circle cx="80.9375" cy="16.9375" r="0.9375" fill="#1730BF" fill-opacity="0.9"/>
<circle cx="116.938" cy="37.9375" r="1.9375" fill="#7957FF" fill-opacity="0.45"/>
<path d="M301.394 130.215L297.574 128.824L298.964 125.004L302.785 126.394L301.394 130.215Z" fill="#4F95FF" fill-opacity="0.75"/>
<path d="M256.822 41.3148L259.329 40.4515L260.192 42.9587L257.685 43.8219L256.822 41.3148Z" fill="#7957FF" fill-opacity="0.65"/>
<path d="M343.797 106.13L346.278 102.31L350.678 103.489L350.917 108.038L346.664 109.67L343.797 106.13Z" fill="#27B96F"/>
<path d="M324.492 171.059L321.482 166.048L327.326 165.946L324.492 171.059Z" fill="#4F95FF"/>
<path d="M286.125 215L284.501 212.188H287.749L286.125 215Z" fill="#1730BF" fill-opacity="0.85"/>
<path d="M56.4108 137.765L54.1521 138.499L52.3871 136.91L52.8809 134.587L55.1396 133.853L56.9046 135.442L56.4108 137.765Z" fill="#4F95FF" fill-opacity="0.65"/>
<path d="M186.729 0.694383L183.763 -0.882458L185.34 -3.84806L188.306 -2.27122L186.729 0.694383Z" fill="#4F95FF" fill-opacity="0.6"/>
<path d="M251.202 7.88728L246.517 6.97655L247.427 2.29127L252.113 3.202L251.202 7.88728Z" fill="#1730BF"/>
<path d="M27.8979 266.517L26.185 267.28L24.6681 266.177L24.8641 264.313L26.577 263.55L28.0939 264.652L27.8979 266.517Z" fill="#4F95FF"/>
<path d="M36.4657 274.314L34.8151 274.399L34.846 276.051L33.9475 274.664L32.5319 275.517L33.2841 274.045L31.8375 273.246L33.4882 273.161L33.4572 271.509L34.3557 272.896L35.7714 272.043L35.0191 273.515L36.4657 274.314Z" fill="#7957FF" fill-opacity="0.45"/>
<path d="M306.366 107.207L306.854 108.99L308.525 109.78L306.742 110.268L305.952 111.939L305.464 110.156L303.793 109.366L305.576 108.878L306.366 107.207Z" fill="#27B96F"/>
<path d="M4.21677 157.579L3.41605 156.477L2.12046 156.898L2.92118 155.796L2.12046 154.694L3.41605 155.115L4.21677 154.013L4.21677 155.375L5.51236 155.796L4.21677 156.217L4.21677 157.579Z" fill="#1730BF" fill-opacity="0.9"/>
<path d="M254.783 137.149L254.929 135.503L253.288 135.303L254.787 134.607L254.139 133.086L255.492 134.036L256.485 132.714L256.339 134.361L257.98 134.56L256.481 135.257L257.129 136.777L255.776 135.828L254.783 137.149Z" fill="#4F95FF" fill-opacity="0.35"/>
<path d="M276.729 234.694L275.609 233.224L273.763 233.118L275.233 231.997L275.34 230.152L276.46 231.622L278.306 231.729L276.835 232.849L276.729 234.694Z" fill="#7957FF" fill-opacity="0.65"/>
<path d="M101.077 25.3125L101.587 22.914L99.4634 21.688L101.902 21.4316L102.412 19.0332L103.409 21.2732L105.848 21.0169L104.026 22.6577L105.023 24.8978L102.899 23.6717L101.077 25.3125Z" fill="#4F95FF" fill-opacity="0.65"/>
<path d="M291.517 60.8024L290.341 61.6664L290.231 63.1216L289.367 61.9456L287.912 61.836L289.088 60.972L289.198 59.5168L290.062 60.6928L291.517 60.8024Z" fill="#7957FF" fill-opacity="0.75"/>
<path d="M303.759 37.4527L301.714 39.6692L302.066 42.6645L299.849 40.6195L296.854 40.9711L298.899 38.7545L298.547 35.7592L300.764 37.8042L303.759 37.4527Z" fill="#666D80" fill-opacity="0.75"/>
<path d="M317.79 43.0429L316.349 41.0592L314.017 41.8169L315.458 39.8331L314.017 37.8493L316.349 38.6071L317.79 36.6233L317.79 39.0754L320.122 39.8331L317.79 40.5909L317.79 43.0429Z" fill="#7957FF" fill-opacity="0.65"/>
</g>
<defs>
<clipPath id="clip0_1_954">
<rect width="375" height="283" fill="white"/>
</clipPath>
</defs>
</svg>
