<svg width="16" height="17" viewBox="0 0 16 17" fill="none" xmlns="http://www.w3.org/2000/svg">
<path fill-rule="evenodd" clip-rule="evenodd" d="M8.92347 0.406306C8.38627 -0.033221 7.61373 -0.0332225 7.07653 0.406305L1.03486 5.34949C0.696331 5.62647 0.5 6.04077 0.5 6.47817V15.0416C0.5 15.847 1.15292 16.4999 1.95833 16.4999H14.0417C14.8471 16.4999 15.5 15.847 15.5 15.0416V6.47818C15.5 6.04077 15.3037 5.62647 14.9651 5.34949L8.92347 0.406306ZM4.45833 11.9166C4.11316 11.9166 3.83333 12.1964 3.83333 12.5416C3.83333 12.8868 4.11316 13.1666 4.45833 13.1666H11.5417C11.8868 13.1666 12.1667 12.8868 12.1667 12.5416C12.1667 12.1964 11.8868 11.9166 11.5417 11.9166H4.45833Z" fill="#1730BF"/>
</svg>
