<svg width="118" height="70" viewBox="0 0 118 70" fill="none" xmlns="http://www.w3.org/2000/svg">
<g clip-path="url(#clip0_72_9)">
<path d="M12.2549 11.5075C9.67494 13.9074 8.38496 17.3301 8.38496 21.7758C8.38496 26.2214 9.67494 29.6638 12.2549 32.1031C14.8349 34.5029 17.8644 35.7028 21.3435 35.7028C24.8617 35.7028 27.9108 34.5029 30.4907 32.1031C33.0707 29.6638 34.3607 26.2214 34.3607 21.7758C34.3607 17.3301 33.0707 13.9074 30.4907 11.5075C27.9108 9.06829 24.8617 7.84871 21.3435 7.84871C17.8644 7.84871 14.8349 9.06829 12.2549 11.5075ZM0 21.8348C0 15.304 2.09135 10.0322 6.27406 6.01929C10.4567 2.00644 15.4799 0 21.3435 0C27.2462 0 32.2889 2.00644 36.4716 6.01929C40.6543 10.0322 42.7457 15.304 42.7457 21.8348C42.7457 28.3262 40.6543 33.5784 36.4716 37.5912C32.2889 41.6041 27.2462 43.6105 21.3435 43.6105C15.4799 43.6105 10.4567 41.6041 6.27406 37.5912C2.09135 33.5784 0 28.3262 0 21.8348Z" fill="white"/>
<path d="M57.9114 19.9464H64.303C66.2966 19.9464 67.8795 19.4152 69.0525 18.353C70.2248 17.2515 70.8112 15.7958 70.8112 13.9861C70.8112 12.137 70.2248 10.6814 69.0525 9.61912C67.9185 8.51753 66.3355 7.96676 64.303 7.96676H57.9114V19.9464ZM65.2995 26.9689H57.8527V42.7254H49.761V0.885193H65.2995C69.3652 0.885193 72.6485 2.10479 75.1501 4.54399C77.6912 6.98318 78.9615 10.1109 78.9615 13.9271C78.9615 17.7432 77.6912 20.8709 75.1501 23.3101C72.6485 25.7493 69.3652 26.9689 65.2995 26.9689Z" fill="white"/>
<path d="M117.942 0.885193L104.338 21.8348L118 42.7254H108.208L99.2362 28.2672L90.2063 42.7254H80.7073L94.3699 21.7758L80.7663 0.885193H90.4995L99.4126 15.3434L108.501 0.885193H117.942Z" fill="white"/>
<path d="M117.996 69.7406H116.011L110.453 61.2376V69.7406H108.547V58.5144H110.977L116.091 66.4788V58.5144H117.996V69.7406Z" fill="white"/>
<path d="M97.0385 64.1194C97.0385 66.8271 98.9123 68.1729 100.802 68.1729C102.708 68.1729 104.582 66.8271 104.582 64.1194C104.582 61.4118 102.708 60.0659 100.802 60.0659C98.9123 60.0659 97.0385 61.4118 97.0385 64.1194ZM95.085 64.1194C95.085 60.4459 97.8485 58.2768 100.802 58.2768C103.756 58.2768 106.535 60.4459 106.535 64.1194C106.535 67.8088 103.756 69.9776 100.802 69.9776C97.8485 69.9776 95.085 67.8088 95.085 64.1194Z" fill="white"/>
<path d="M93.0684 69.7406H91.1309V58.5144H93.0684V69.7406Z" fill="white"/>
<path d="M89.5679 60.3035H85.8993V69.7406H83.9936V60.3035H80.3409V58.5144H89.5679V60.3035Z" fill="white"/>
<path d="M78.9355 69.7406L77.8712 66.9218H73.1069L72.0585 69.7406H70.0419L74.425 58.5144H76.6328L81.0159 69.7406H78.9355ZM75.4888 60.5729L73.7736 65.1647H77.2045L75.4888 60.5729Z" fill="white"/>
<path d="M64.6039 69.9776C61.5707 69.9776 58.9183 67.7929 58.9183 64.1353C58.9183 60.4776 61.6657 58.2768 64.5879 58.2768C67.4465 58.2768 69.1457 59.9553 69.6543 61.9188L67.8595 62.52C67.5261 61.1588 66.4777 60.0659 64.5879 60.0659C62.73 60.0659 60.8715 61.4118 60.8715 64.1353C60.8715 66.7635 62.6822 68.1571 64.6039 68.1571C66.4936 68.1571 67.5733 66.9535 67.9545 65.6871L69.7015 66.2571C69.1935 68.1571 67.4783 69.9776 64.6039 69.9776Z" fill="white"/>
<path d="M56.9015 69.7406H54.964V58.5144H56.9015V69.7406Z" fill="white"/>
<path d="M48.0296 69.7406H46.1239V58.5144H53.1274V60.3035H48.0296V63.4547H52.6034V65.2118H48.0296V69.7406Z" fill="white"/>
<path d="M43.4243 69.7406H41.4868V58.5144H43.4243V69.7406Z" fill="white"/>
<path d="M39.9237 60.3035H36.2552V69.7406H34.3494V60.3035H30.6968V58.5144H39.9237V60.3035Z" fill="white"/>
<path d="M27.6465 69.7406L25.2802 65.3071H23.8826V69.7406H21.9611V58.5144H26.2807C28.4564 58.5144 29.8063 60.0182 29.8063 61.9188C29.8063 63.5176 28.8376 64.7371 27.2653 65.1171L29.8063 69.7406H27.6465ZM23.8826 63.6288H25.9313C27.1065 63.6288 27.8688 62.9476 27.8688 61.9188C27.8688 60.8735 27.1065 60.1929 25.9313 60.1929H23.8826V63.6288Z" fill="white"/>
<path d="M19.6738 69.7406H12.7178V58.5144H19.6738V60.2876H14.6235V63.2647H19.1973V64.99H14.6235V67.9671H19.6738V69.7406Z" fill="white"/>
<path d="M5.68543 69.9776C2.65214 69.9776 0 67.7929 0 64.1353C0 60.4776 2.74743 58.2768 5.66956 58.2768C8.52816 58.2768 10.2274 59.9553 10.7356 61.9188L8.94104 62.52C8.60757 61.1588 7.55943 60.0659 5.66956 60.0659C3.81147 60.0659 1.95338 61.4118 1.95338 64.1353C1.95338 66.7635 3.76382 68.1571 5.68543 68.1571C7.57531 68.1571 8.65518 66.9535 9.03632 65.6871L10.7833 66.2571C10.2751 68.1571 8.5599 69.9776 5.68543 69.9776Z" fill="white"/>
</g>
<defs>
<clipPath id="clip0_72_9">
<rect width="118" height="70" fill="white"/>
</clipPath>
</defs>
</svg>
