<svg width="17" height="18" viewBox="0 0 17 18" fill="none" xmlns="http://www.w3.org/2000/svg">
<path d="M3.38083 14.7631C4.47548 13.164 6.27671 12.125 8.50002 12.125C10.7233 12.125 12.5246 13.164 13.6192 14.7631M3.38083 14.7631C4.7422 15.9732 6.53527 16.7083 8.50002 16.7083C10.4648 16.7083 12.2578 15.9732 13.6192 14.7631M3.38083 14.7631C1.7924 13.3511 0.791687 11.2924 0.791687 8.99996C0.791687 4.74276 4.24283 1.29163 8.50002 1.29163C12.7572 1.29163 16.2084 4.74276 16.2084 8.99996C16.2084 11.2924 15.2076 13.3511 13.6192 14.7631M11.2084 7.33329C11.2084 8.82906 9.99579 10.0416 8.50002 10.0416C7.00425 10.0416 5.79169 8.82906 5.79169 7.33329C5.79169 5.83752 7.00425 4.62496 8.50002 4.62496C9.99579 4.62496 11.2084 5.83752 11.2084 7.33329Z" stroke="#667085" stroke-width="1.5" stroke-linejoin="round"/>
</svg>
